HIERARCHY
ROOT Hips
{
	OFFSET 0.000000 0.000000 0.000000
	CHANNELS 6 Xposition Yposition Zposition Xrotation Yrotation Zrotation
	JOINT LeftUpLeg_virtual
	{
		OFFSET 0.000000 0.000000 0.000000
		CHANNELS 3 Xrotation Yrotation Zrotation
		JOINT LeftUpLeg
		{
			OFFSET 10.205400 -3.823500 0.155100
			CHANNELS 3 Xrotation Yrotation Zrotation
			JOINT LeftLeg
			{
				OFFSET 0.708757 -12.982077 0.567790
				CHANNELS 3 Xrotation Yrotation Zrotation
				JOINT LeftFoot
				{
					OFFSET -0.708756 -10.717838 -2.184338
					CHANNELS 3 Xrotation Yrotation Zrotation
					JOINT LeftToeBase
					{
						OFFSET 0.108149 -7.191104 7.560241
						CHANNELS 3 Xrotation Yrotation Zrotation
						JOINT LeftToe_End
						{
							OFFSET 0.070230 0.081724 4.490308
							CHANNELS 3 Xrotation Yrotation Zrotation
							End Site
							{
								OFFSET 0 0 0
							}
						}
					}
				}
			}
		}
	}
	JOINT RightUpLeg_virtual
	{
		OFFSET 0.000000 0.000000 0.000000
		CHANNELS 3 Xrotation Yrotation Zrotation
		JOINT RightUpLeg
		{
			OFFSET -10.205400 -3.823500 0.005500
			CHANNELS 3 Xrotation Yrotation Zrotation
			JOINT RightLeg
			{
				OFFSET -0.708756 -12.982134 0.610632
				CHANNELS 3 Xrotation Yrotation Zrotation
				JOINT RightFoot
				{
					OFFSET 0.708754 -10.717769 -1.945823
					CHANNELS 3 Xrotation Yrotation Zrotation
					JOINT RightToeBase
					{
						OFFSET -0.108140 -7.191069 7.372968
						CHANNELS 3 Xrotation Yrotation Zrotation
						JOINT RightToe_End
						{
							OFFSET -0.070227 0.081735 4.479403
							CHANNELS 3 Xrotation Yrotation Zrotation
							End Site
							{
								OFFSET 0 0 0
							}
						}
					}
				}
			}
		}
	}
	JOINT Spine_virtual
	{
		OFFSET 0.000000 0.000000 0.000000
		CHANNELS 3 Xrotation Yrotation Zrotation
		JOINT Spine
		{
			OFFSET 0.000000 6.876099 0.125700
			CHANNELS 3 Xrotation Yrotation Zrotation
			JOINT Spine1
			{
				OFFSET 0.000000 5.730043 0.104720
				CHANNELS 3 Xrotation Yrotation Zrotation
				JOINT Spine1_split
				{
					OFFSET 0.000000 5.730043 0.104720
					CHANNELS 3 Xrotation Yrotation Zrotation
					JOINT Spine2
					{
						OFFSET 0.000000 5.730043 0.104720
						CHANNELS 3 Xrotation Yrotation Zrotation
						JOINT Neck_virtual
						{
							OFFSET 0.000000 0.000000 0.000000
							CHANNELS 3 Xrotation Yrotation Zrotation
							JOINT Neck
							{
								OFFSET 0.000000 10.314075 0.188496
								CHANNELS 3 Xrotation Yrotation Zrotation
								JOINT Head
								{
									OFFSET 0.000000 7.643700 -2.377400
									CHANNELS 3 Xrotation Yrotation Zrotation
									JOINT HeadTop_End
									{
										OFFSET 0.000000 43.788605 -13.619600
										CHANNELS 3 Xrotation Yrotation Zrotation
										End Site
										{
											OFFSET 0 0 0
										}
									}
								}
							}
						}
						JOINT LeftShoulder_virtual
						{
							OFFSET 0.000000 0.000000 0.000000
							CHANNELS 3 Xrotation Yrotation Zrotation
							JOINT LeftShoulder
							{
								OFFSET 2.196100 4.412489 0.087492
								CHANNELS 3 Xrotation Yrotation Zrotation
								JOINT LeftShoulder_split
								{
									OFFSET 2.196100 4.412489 0.087492
									CHANNELS 3 Xrotation Yrotation Zrotation
									JOINT LeftArm
									{
										OFFSET 8.771219 -2.981674 -0.026999
										CHANNELS 3 Xrotation Yrotation Zrotation
										JOINT LeftForeArm
										{
											OFFSET 8.512804 0.000000 -0.000000
											CHANNELS 3 Xrotation Yrotation Zrotation
											JOINT LeftHand
											{
												OFFSET 18.484802 0.000000 -0.000000
												CHANNELS 3 Xrotation Yrotation Zrotation
												End Site
												{
													OFFSET 0 0 0
												}
											}
										}
									}
								}
							}
						}
						JOINT RightShoulder_virtual
						{
							OFFSET 0.000000 0.000000 0.000000
							CHANNELS 3 Xrotation Yrotation Zrotation
							JOINT RightShoulder
							{
								OFFSET -2.196100 4.412496 0.070690
								CHANNELS 3 Xrotation Yrotation Zrotation
								JOINT RightShoulder_split
								{
									OFFSET -2.196100 4.412496 0.070690
									CHANNELS 3 Xrotation Yrotation Zrotation
									JOINT RightArm
									{
										OFFSET -8.771282 -2.981682 -0.094208
										CHANNELS 3 Xrotation Yrotation Zrotation
										JOINT RightForeArm
										{
											OFFSET -8.494598 0.000000 0.000000
											CHANNELS 3 Xrotation Yrotation Zrotation
											JOINT RightHand
											{
												OFFSET -18.483803 0.000000 0.000001
												CHANNELS 3 Xrotation Yrotation Zrotation
												End Site
												{
													OFFSET 0 0 0
												}
											}
										}
									}
								}
							}
						}
					}
				}
			}
		}
	}
}
MOTION
Frames: 6
Frame Time: 0.03333333
-0.914868 33.898064 -4.438023 0.000000 0.000000 0.000000 4.261798 23.366402 -0.792154 -29.060361 3.509086 9.033170 44.482635 0.025292 -2.905334 12.059999 -1.961588 -14.172035 -16.438532 -2.497895 -8.502131 0.000000 0.000000 0.000000 6.499327 21.705122 -0.634432 -3.927112 -7.044845 0.709012 13.449455 6.358957 2.687431 -27.001560 -6.213148 13.974197 11.887484 5.773962 -12.027109 0.000000 0.000000 0.000000 5.187233 24.069725 -0.872349 10.210473 -4.334555 5.387365 2.067131 0.925675 2.457808 -0.013080 0.365723 -0.074214 0.000000 0.000000 0.000000 4.535138 2.924939 2.648050 -11.738261 0.557902 -6.247601 -32.141269 -10.320890 -8.342233 0.000000 0.000000 0.000000 2.318940 1.304863 2.005417 -2.031704 -17.316445 -10.158229 -4.011146 2.587999 -3.880906 23.407337 -16.688548 -56.123729 12.237266 -23.938380 4.135906 0.000000 0.000000 0.000000 3.455905 1.822892 3.414882 -1.911849 -1.417882 4.596968 -9.069242 -2.146753 1.548970 17.893359 9.145262 47.868503 -8.886757 35.774188 14.647739 0.000000 0.000000 0.000000 
-0.230922 33.852551 -3.668016 0.000000 0.000000 0.000000 4.544058 23.024933 -0.482706 -27.059768 3.017857 9.285010 41.540039 1.061618 -2.746476 8.570620 -0.072257 -11.204307 -14.794806 -2.062784 -9.941702 0.000000 0.000000 0.000000 6.603341 21.007743 -0.314352 -3.942665 -7.034761 -0.335230 13.927042 6.321837 2.666542 -26.976151 -6.442729 12.970142 12.126113 5.660747 -11.881083 0.000000 0.000000 0.000000 5.609019 23.739357 -1.140657 10.127030 -3.958317 5.288672 2.399122 1.066327 2.331117 -0.003173 0.493967 -0.062255 0.000000 0.000000 0.000000 4.538403 3.123905 2.434089 -11.284389 0.264089 -6.120138 -32.194585 -9.860030 -8.023424 0.000000 0.000000 0.000000 2.632865 1.473750 1.859148 -2.176391 -17.546848 -9.921485 -4.648519 3.923136 -4.464525 22.839676 -15.155201 -56.615681 12.022245 -22.746313 3.912824 0.000000 0.000000 0.000000 3.634047 2.074817 3.221819 -2.123867 -0.713193 4.683703 -8.469814 -1.221492 0.939749 16.752518 10.092850 48.252175 -9.552290 39.287549 15.040425 0.000000 0.000000 0.000000 
0.694429 33.817013 -2.596746 0.000000 0.000000 0.000000 4.627936 22.379339 0.195913 -25.153495 3.434885 10.900990 37.024270 1.934389 -2.017440 6.159501 2.245230 -11.742311 -11.380685 -2.005272 -10.284222 0.000000 0.000000 0.000000 6.414655 20.410422 0.247342 -3.426361 -7.514306 -2.365711 14.779546 6.888283 2.631766 -26.431126 -6.538190 13.070378 10.663496 6.148239 -12.422880 0.000000 0.000000 0.000000 5.695818 23.454654 -0.961698 10.308503 -2.983318 4.931226 2.632097 1.677359 2.071801 0.036445 0.477013 -0.023963 0.000000 0.000000 0.000000 4.503400 3.785926 2.074970 -10.498322 -0.010551 -5.995034 -31.554043 -11.293774 -8.424128 0.000000 0.000000 0.000000 2.737640 2.095824 1.556938 -2.405874 -17.884861 -10.075407 -5.368149 4.732554 -4.926662 21.021611 -12.558677 -57.373097 11.598224 -21.830244 3.699266 0.000000 0.000000 0.000000 3.629749 2.764336 2.875662 -2.257069 0.199947 4.865717 -7.637871 -1.937969 0.593337 16.325810 11.794993 47.654387 -10.317860 44.806413 15.461641 0.000000 0.000000 0.000000 
1.705314 33.735287 -1.462986 0.000000 0.000000 0.000000 4.460834 21.523229 1.018455 -23.921925 4.485235 13.320419 31.832585 1.910681 -0.780150 5.918715 3.996111 -16.229942 -8.543897 -2.270359 -8.719773 0.000000 0.000000 0.000000 6.080124 19.768736 0.912090 -2.299035 -8.391043 -4.999286 15.369729 8.060885 2.585234 -25.877406 -6.329942 14.095512 8.475671 7.125952 -13.436214 0.000000 0.000000 0.000000 5.299344 22.991393 -0.433840 10.573688 -1.553193 4.462392 2.776915 2.667017 1.679920 0.089690 0.317644 -0.002990 0.000000 0.000000 0.000000 4.427215 4.847542 1.611111 -9.517501 -0.250013 -5.824332 -30.272734 -14.587455 -9.426651 0.000000 0.000000 0.000000 2.711814 3.091223 1.102441 -2.698082 -18.327581 -10.675647 -5.633021 4.884098 -5.109043 18.253080 -9.388622 -58.238872 10.865624 -20.889005 3.368689 0.000000 0.000000 0.000000 3.512645 3.801776 2.390635 -2.317646 1.298700 5.111607 -6.822557 -3.576938 0.612286 16.635213 13.601499 46.413171 -11.014891 51.166518 15.761276 0.000000 0.000000 0.000000 
2.689682 33.600201 -0.315481 0.000000 0.000000 0.000000 4.053912 20.514726 1.716615 -23.625771 6.180741 16.086979 27.056001 1.099713 0.684738 6.915170 4.618444 -22.827262 -7.387972 -2.730767 -5.474240 0.000000 0.000000 0.000000 5.682853 18.994283 1.469138 -0.616202 -9.653701 -7.735107 15.287558 9.585915 2.537489 -25.844795 -5.866079 15.147638 7.267872 8.281039 -14.502271 0.000000 0.000000 0.000000 4.828884 22.306088 0.128573 10.732362 0.144201 4.067474 2.868786 3.914971 1.173576 0.134670 0.087131 0.002304 0.000000 0.000000 0.000000 4.351864 6.175870 1.076360 -8.523957 -0.423381 -5.548463 -28.600167 -19.553005 -10.896308 0.000000 0.000000 0.000000 2.604957 4.363758 0.536014 -3.046656 -18.774050 -11.709098 -5.509482 4.649904 -4.896940 15.023800 -6.036739 -59.078268 9.611558 -19.783448 2.752932 0.000000 0.000000 0.000000 3.377475 5.084833 1.798807 -2.303283 2.674829 5.368058 -6.212346 -4.894844 0.622950 17.189829 15.033977 44.976454 -11.628121 57.546427 15.960945 0.000000 0.000000 0.000000 
3.619797 33.395947 0.763287 0.000000 0.000000 0.000000 3.531563 19.412055 2.059068 -24.332948 8.174839 18.753994 23.321275 -0.160568 2.160043 8.112245 4.033205 -29.611554 -7.136596 -3.333040 -1.687491 0.000000 0.000000 0.000000 5.390203 18.345147 1.678604 1.338811 -11.135182 -10.181988 14.532382 11.167389 2.563639 -26.365302 -5.350868 15.952551 7.214927 9.324061 -15.259008 0.000000 0.000000 0.000000 4.399342 21.350396 0.478170 10.665741 1.891513 3.912113 2.957388 5.306870 0.605794 0.155318 -0.165432 -0.003761 0.000000 0.000000 0.000000 4.298859 7.655269 0.521448 -7.681339 -0.535341 -5.092078 -26.683087 -25.859815 -12.704624 0.000000 0.000000 0.000000 2.515479 5.801622 -0.084703 -3.438790 -19.127385 -13.012978 -5.177848 4.293929 -4.599995 11.773030 -2.705430 -59.810204 7.709257 -18.681722 1.786535 0.000000 0.000000 0.000000 3.342159 6.503155 1.118819 -2.255487 4.400585 5.537697 -6.100451 -5.455386 0.444780 17.369270 15.667938 43.915852 -12.210726 63.234369 16.139913 0.000000 0.000000 0.000000 
